<svg width="102" height="51" viewBox="0 0 102 51" fill="none" xmlns="http://www.w3.org/2000/svg">
<rect width="102" height="51" fill="white"/>
<path d="M9.94336 34.9805L6.35938 35C6.29427 35 6.26172 34.9674 6.26172 34.9023L6.30078 21.1621C6.30078 21.11 6.32682 21.084 6.37891 21.084L10.1191 21.0645C10.8613 21.0449 11.5319 21.2142 12.1309 21.5723C12.7363 21.9303 13.2181 22.4154 13.5762 23.0273C13.9408 23.6328 14.123 24.3034 14.123 25.0391V30.7812C14.123 31.5495 13.9375 32.2526 13.5664 32.8906C13.1888 33.5221 12.6875 34.0267 12.0625 34.4043C11.4375 34.7754 10.7311 34.9674 9.94336 34.9805ZM10.1191 23.457L8.72266 23.4766L8.70312 32.5391H9.94336C10.4382 32.5391 10.8548 32.3665 11.1934 32.0215C11.5319 31.6764 11.7012 31.263 11.7012 30.7812V25.0195C11.7012 24.5964 11.5449 24.2285 11.2324 23.916C10.9199 23.597 10.5488 23.444 10.1191 23.457ZM15.0215 34.9023L17.502 21.1621C17.515 21.11 17.5475 21.084 17.5996 21.084H20.5C20.5521 21.084 20.5846 21.11 20.5977 21.1621L22.9805 34.9023C22.987 34.9674 22.9609 35 22.9023 35H20.6855C20.6204 35 20.5846 34.9674 20.5781 34.9023L20.3633 33.4375H17.6387L17.4238 34.9023C17.4173 34.9674 17.3848 35 17.3262 35H15.0996C15.0475 35 15.0215 34.9674 15.0215 34.9023ZM18.9375 25.6836L18.0391 31.2988H19.9629L19.1426 25.6836L19.0254 24.9414L18.9375 25.6836ZM26.5938 35H24.3281C24.263 35 24.2305 34.9674 24.2305 34.9023L24.25 21.1621C24.25 21.11 24.276 21.084 24.3281 21.084H26.5742C26.6263 21.084 26.6523 21.11 26.6523 21.1621L26.6719 34.9023C26.6719 34.9674 26.6458 35 26.5938 35ZM34.9727 35H28.5078C28.4557 35 28.4297 34.9674 28.4297 34.9023L28.4492 21.1816C28.4492 21.1165 28.4818 21.084 28.5469 21.084H30.7734C30.8385 21.084 30.8711 21.1165 30.8711 21.1816L30.8516 32.5391H34.9727C35.0378 32.5391 35.0703 32.5716 35.0703 32.6367V34.9023C35.0703 34.9674 35.0378 35 34.9727 35ZM40.5488 35H38.2539C38.2083 35 38.1855 34.974 38.1855 34.9219L38.2051 29.2383L35.5293 21.1621C35.5163 21.11 35.5358 21.084 35.5879 21.084H37.8145C37.8796 21.084 37.9186 21.11 37.9316 21.1621L39.4062 26.543L40.9102 21.1621C40.9232 21.11 40.9557 21.084 41.0078 21.084H43.2539C43.306 21.084 43.3255 21.11 43.3125 21.1621L40.6074 29.1602L40.627 34.9219C40.627 34.974 40.6009 35 40.5488 35ZM53.2832 35.1953C52.5605 35.1953 51.8997 35.013 51.3008 34.6484C50.7083 34.2839 50.2363 33.7956 49.8848 33.1836C49.5397 32.5651 49.3672 31.8783 49.3672 31.123L49.3867 24.8828C49.3867 24.1406 49.556 23.4701 49.8945 22.8711C50.2331 22.2656 50.6986 21.7806 51.291 21.416C51.89 21.0449 52.554 20.8594 53.2832 20.8594C54.0254 20.8594 54.6862 21.0384 55.2656 21.3965C55.8516 21.7546 56.3171 22.2396 56.6621 22.8516C57.0137 23.457 57.1895 24.1341 57.1895 24.8828V25.8008C57.1895 25.8529 57.1634 25.8789 57.1113 25.8789H54.8652C54.8132 25.8789 54.7871 25.8529 54.7871 25.8008V24.8828C54.7871 24.4401 54.6439 24.0592 54.3574 23.7402C54.071 23.4212 53.7129 23.2617 53.2832 23.2617C52.8079 23.2617 52.4434 23.4245 52.1895 23.75C51.9355 24.0755 51.8086 24.4531 51.8086 24.8828V31.123C51.8086 31.6113 51.9518 32.0117 52.2383 32.3242C52.5247 32.6302 52.873 32.7832 53.2832 32.7832C53.7129 32.7832 54.071 32.6139 54.3574 32.2754C54.6439 31.9303 54.7871 31.5462 54.7871 31.123V30.1953C54.7871 30.1432 54.8132 30.1172 54.8652 30.1172H57.1309C57.1829 30.1172 57.209 30.1432 57.209 30.1953V31.123C57.209 31.8717 57.0332 32.5553 56.6816 33.1738C56.3236 33.7858 55.8516 34.2773 55.2656 34.6484C54.6797 35.013 54.0189 35.1953 53.2832 35.1953ZM62.3652 35.1953C61.6556 35.1953 61.0013 35.013 60.4023 34.6484C59.8099 34.2839 59.3314 33.7988 58.9668 33.1934C58.6087 32.5814 58.4297 31.9108 58.4297 31.1816L58.4492 24.8438C58.4492 24.1016 58.6283 23.4342 58.9863 22.8418C59.3379 22.2428 59.8132 21.7643 60.4121 21.4062C61.0111 21.0417 61.6621 20.8594 62.3652 20.8594C63.0944 20.8594 63.7487 21.0384 64.3281 21.3965C64.9141 21.7546 65.3828 22.2363 65.7344 22.8418C66.0924 23.4408 66.2715 24.1081 66.2715 24.8438L66.291 31.1816C66.291 31.9108 66.1152 32.5781 65.7637 33.1836C65.4056 33.7956 64.9303 34.2839 64.3379 34.6484C63.7454 35.013 63.0879 35.1953 62.3652 35.1953ZM62.3652 32.7832C62.7689 32.7832 63.1204 32.6204 63.4199 32.2949C63.7194 31.9629 63.8691 31.5918 63.8691 31.1816L63.8496 24.8438C63.8496 24.401 63.7096 24.0267 63.4297 23.7207C63.1497 23.4147 62.7949 23.2617 62.3652 23.2617C61.9551 23.2617 61.6035 23.4115 61.3105 23.7109C61.0176 24.0104 60.8711 24.388 60.8711 24.8438V31.1816C60.8711 31.6178 61.0176 31.9954 61.3105 32.3145C61.6035 32.627 61.9551 32.7832 62.3652 32.7832ZM71.5059 35.1953C70.7962 35.1953 70.1419 35.013 69.543 34.6484C68.9505 34.2839 68.472 33.7988 68.1074 33.1934C67.7493 32.5814 67.5703 31.9108 67.5703 31.1816L67.5898 24.8438C67.5898 24.1016 67.7689 23.4342 68.127 22.8418C68.4785 22.2428 68.9538 21.7643 69.5527 21.4062C70.1517 21.0417 70.8027 20.8594 71.5059 20.8594C72.235 20.8594 72.8893 21.0384 73.4688 21.3965C74.0547 21.7546 74.5234 22.2363 74.875 22.8418C75.2331 23.4408 75.4121 24.1081 75.4121 24.8438L75.4316 31.1816C75.4316 31.9108 75.2559 32.5781 74.9043 33.1836C74.5462 33.7956 74.071 34.2839 73.4785 34.6484C72.8861 35.013 72.2285 35.1953 71.5059 35.1953ZM71.5059 32.7832C71.9095 32.7832 72.2611 32.6204 72.5605 32.2949C72.86 31.9629 73.0098 31.5918 73.0098 31.1816L72.9902 24.8438C72.9902 24.401 72.8503 24.0267 72.5703 23.7207C72.2904 23.4147 71.9355 23.2617 71.5059 23.2617C71.0957 23.2617 70.7441 23.4115 70.4512 23.7109C70.1582 24.0104 70.0117 24.388 70.0117 24.8438V31.1816C70.0117 31.6178 70.1582 31.9954 70.4512 32.3145C70.7441 32.627 71.0957 32.7832 71.5059 32.7832ZM79.2891 35H77.0234C76.9714 35 76.9453 34.9674 76.9453 34.9023L76.9844 21.1816C76.9844 21.1165 77.0104 21.084 77.0625 21.084H79.3086C79.3607 21.084 79.3867 21.1165 79.3867 21.1816V25.918L82.5215 21.1621C82.5736 21.11 82.6224 21.084 82.668 21.084H84.9629C85.0215 21.084 85.0345 21.11 85.002 21.1621L81.5449 26.6797L85.4219 34.9219C85.4544 34.974 85.4219 35 85.3242 35H82.8828C82.8177 35 82.7786 34.974 82.7656 34.9219L80.0605 29.043L79.3672 30.1367V34.9023C79.3672 34.9674 79.3411 35 79.2891 35Z" fill="black"/>
<path d="M92.0952 22.8445C92.355 22.8445 92.5748 22.7547 92.7546 22.5751C92.9344 22.3954 93.0243 22.1759 93.0243 21.9164C93.0243 21.6569 92.9344 21.4374 92.7546 21.2577C92.5748 21.0781 92.355 20.9883 92.0952 20.9883C91.8354 20.9883 91.6157 21.0781 91.4358 21.2577C91.256 21.4374 91.1661 21.6569 91.1661 21.9164C91.1661 22.1759 91.256 22.3954 91.4358 22.5751C91.6157 22.7547 91.8354 22.8445 92.0952 22.8445ZM90.8963 25.8384C91.1561 25.8384 91.3759 25.7486 91.5557 25.569C91.7355 25.3894 91.8255 25.1698 91.8255 24.9103C91.8255 24.6509 91.7355 24.4313 91.5557 24.2517C91.3759 24.072 91.1561 23.9822 90.8963 23.9822C90.6366 23.9822 90.4168 24.072 90.237 24.2517C90.0571 24.4313 89.9672 24.6509 89.9672 24.9103C89.9672 25.1698 90.0571 25.3894 90.237 25.569C90.4168 25.7486 90.6366 25.8384 90.8963 25.8384ZM94.7927 26.4073C94.9625 26.4073 95.1049 26.3499 95.2198 26.2351C95.3347 26.1204 95.3921 25.9782 95.3921 25.8085C95.3921 25.6389 95.3347 25.4966 95.2198 25.3819C95.1049 25.2671 94.9625 25.2097 94.7927 25.2097C94.6228 25.2097 94.4805 25.2671 94.3656 25.3819C94.2507 25.4966 94.1932 25.6389 94.1932 25.8085C94.1932 25.9782 94.2507 26.1204 94.3656 26.2351C94.4805 26.3499 94.6228 26.4073 94.7927 26.4073ZM92.9944 30C92.1751 30 91.4009 29.8428 90.6715 29.5285C89.9422 29.2141 89.3053 28.785 88.7608 28.2411C88.2164 27.6972 87.7868 27.061 87.4721 26.3324C87.1574 25.6039 87 24.8305 87 24.0122C87 23.094 87.1948 22.2358 87.5844 21.4374C87.9741 20.639 88.4961 19.9629 89.1505 19.409C89.8049 18.8551 90.5591 18.4559 91.4133 18.2114C92.2675 17.9669 93.1542 17.9345 94.0733 18.1141C94.0134 18.5632 94.0534 18.9873 94.1932 19.3865C94.3331 19.7857 94.5454 20.125 94.8301 20.4045C95.1149 20.6839 95.457 20.8885 95.8567 21.0182C96.2563 21.148 96.6759 21.1779 97.1155 21.108C96.9157 21.7168 97.0256 22.2632 97.4452 22.7472C97.8648 23.2312 98.3743 23.4982 98.9737 23.5481C99.0536 24.4163 98.9512 25.2397 98.6665 26.0181C98.3818 26.7965 97.9647 27.4801 97.4152 28.0689C96.8657 28.6577 96.2113 29.1268 95.452 29.4761C94.6928 29.8254 93.8735 30 92.9944 30Z" fill="black"/>
</svg>
