<svg width="150" height="75" viewBox="0 0 150 75" fill="none" xmlns="http://www.w3.org/2000/svg">
<rect width="150" height="75" fill="white"/>
<path d="M21.7207 47.9727L16.7031 48C16.612 48 16.5664 47.9544 16.5664 47.8633L16.6211 28.627C16.6211 28.554 16.6576 28.5176 16.7305 28.5176L21.9668 28.4902C23.0059 28.4629 23.9447 28.6999 24.7832 29.2012C25.6309 29.7025 26.3053 30.3815 26.8066 31.2383C27.3171 32.0859 27.5723 33.0247 27.5723 34.0547V42.0938C27.5723 43.1693 27.3125 44.1536 26.793 45.0469C26.2643 45.931 25.5625 46.6374 24.6875 47.166C23.8125 47.6855 22.8236 47.9544 21.7207 47.9727ZM21.9668 31.8398L20.0117 31.8672L19.9844 44.5547H21.7207C22.4134 44.5547 22.9967 44.3132 23.4707 43.8301C23.9447 43.347 24.1816 42.7682 24.1816 42.0938V34.0273C24.1816 33.4349 23.9629 32.9199 23.5254 32.4824C23.0879 32.0358 22.5684 31.8216 21.9668 31.8398ZM28.8301 47.8633L32.3027 28.627C32.321 28.554 32.3665 28.5176 32.4395 28.5176H36.5C36.5729 28.5176 36.6185 28.554 36.6367 28.627L39.9727 47.8633C39.9818 47.9544 39.9453 48 39.8633 48H36.7598C36.6686 48 36.6185 47.9544 36.6094 47.8633L36.3086 45.8125H32.4941L32.1934 47.8633C32.1842 47.9544 32.1387 48 32.0566 48H28.9395C28.8665 48 28.8301 47.9544 28.8301 47.8633ZM34.3125 34.957L33.0547 42.8184H35.748L34.5996 34.957L34.4355 33.918L34.3125 34.957ZM45.0312 48H41.8594C41.7682 48 41.7227 47.9544 41.7227 47.8633L41.75 28.627C41.75 28.554 41.7865 28.5176 41.8594 28.5176H45.0039C45.0768 28.5176 45.1133 28.554 45.1133 28.627L45.1406 47.8633C45.1406 47.9544 45.1042 48 45.0312 48ZM56.7617 48H47.7109C47.638 48 47.6016 47.9544 47.6016 47.8633L47.6289 28.6543C47.6289 28.5632 47.6745 28.5176 47.7656 28.5176H50.8828C50.974 28.5176 51.0195 28.5632 51.0195 28.6543L50.9922 44.5547H56.7617C56.8529 44.5547 56.8984 44.6003 56.8984 44.6914V47.8633C56.8984 47.9544 56.8529 48 56.7617 48ZM64.5684 48H61.3555C61.2917 48 61.2598 47.9635 61.2598 47.8906L61.2871 39.9336L57.541 28.627C57.5228 28.554 57.5501 28.5176 57.623 28.5176H60.7402C60.8314 28.5176 60.8861 28.554 60.9043 28.627L62.9688 36.1602L65.0742 28.627C65.0924 28.554 65.138 28.5176 65.2109 28.5176H68.3555C68.4284 28.5176 68.4557 28.554 68.4375 28.627L64.6504 39.8242L64.6777 47.8906C64.6777 47.9635 64.6413 48 64.5684 48ZM82.3965 48.2734C81.3848 48.2734 80.4596 48.0182 79.6211 47.5078C78.7917 46.9974 78.1309 46.3138 77.6387 45.457C77.1556 44.5911 76.9141 43.6296 76.9141 42.5723L76.9414 33.8359C76.9414 32.7969 77.1784 31.8581 77.6523 31.0195C78.1263 30.1719 78.778 29.4928 79.6074 28.9824C80.446 28.4629 81.3757 28.2031 82.3965 28.2031C83.4355 28.2031 84.3607 28.4538 85.1719 28.9551C85.9922 29.4564 86.6439 30.1354 87.127 30.9922C87.6191 31.8398 87.8652 32.7878 87.8652 33.8359V35.1211C87.8652 35.194 87.8288 35.2305 87.7559 35.2305H84.6113C84.5384 35.2305 84.502 35.194 84.502 35.1211V33.8359C84.502 33.2161 84.3014 32.6829 83.9004 32.2363C83.4993 31.7897 82.998 31.5664 82.3965 31.5664C81.7311 31.5664 81.2207 31.7943 80.8652 32.25C80.5098 32.7057 80.332 33.2344 80.332 33.8359V42.5723C80.332 43.2559 80.5326 43.8164 80.9336 44.2539C81.3346 44.6823 81.8223 44.8965 82.3965 44.8965C82.998 44.8965 83.4993 44.6595 83.9004 44.1855C84.3014 43.7025 84.502 43.1647 84.502 42.5723V41.2734C84.502 41.2005 84.5384 41.1641 84.6113 41.1641H87.7832C87.8561 41.1641 87.8926 41.2005 87.8926 41.2734V42.5723C87.8926 43.6204 87.6465 44.5775 87.1543 45.4434C86.653 46.3001 85.9922 46.9883 85.1719 47.5078C84.3516 48.0182 83.4264 48.2734 82.3965 48.2734ZM95.1113 48.2734C94.1178 48.2734 93.2018 48.0182 92.3633 47.5078C91.5339 46.9974 90.8639 46.3184 90.3535 45.4707C89.8522 44.6139 89.6016 43.6751 89.6016 42.6543L89.6289 33.7812C89.6289 32.7422 89.8796 31.8079 90.3809 30.9785C90.873 30.14 91.5384 29.4701 92.377 28.9688C93.2155 28.4583 94.127 28.2031 95.1113 28.2031C96.1322 28.2031 97.0482 28.4538 97.8594 28.9551C98.6797 29.4564 99.3359 30.1309 99.8281 30.9785C100.329 31.8171 100.58 32.7513 100.58 33.7812L100.607 42.6543C100.607 43.6751 100.361 44.6094 99.8691 45.457C99.3678 46.3138 98.7025 46.9974 97.873 47.5078C97.0436 48.0182 96.123 48.2734 95.1113 48.2734ZM95.1113 44.8965C95.6764 44.8965 96.1686 44.6686 96.5879 44.2129C97.0072 43.748 97.2168 43.2285 97.2168 42.6543L97.1895 33.7812C97.1895 33.1615 96.9935 32.6374 96.6016 32.209C96.2096 31.7806 95.7129 31.5664 95.1113 31.5664C94.5371 31.5664 94.0449 31.776 93.6348 32.1953C93.2246 32.6146 93.0195 33.1432 93.0195 33.7812V42.6543C93.0195 43.265 93.2246 43.7936 93.6348 44.2402C94.0449 44.6777 94.5371 44.8965 95.1113 44.8965ZM107.908 48.2734C106.915 48.2734 105.999 48.0182 105.16 47.5078C104.331 46.9974 103.661 46.3184 103.15 45.4707C102.649 44.6139 102.398 43.6751 102.398 42.6543L102.426 33.7812C102.426 32.7422 102.676 31.8079 103.178 30.9785C103.67 30.14 104.335 29.4701 105.174 28.9688C106.012 28.4583 106.924 28.2031 107.908 28.2031C108.929 28.2031 109.845 28.4538 110.656 28.9551C111.477 29.4564 112.133 30.1309 112.625 30.9785C113.126 31.8171 113.377 32.7513 113.377 33.7812L113.404 42.6543C113.404 43.6751 113.158 44.6094 112.666 45.457C112.165 46.3138 111.499 46.9974 110.67 47.5078C109.84 48.0182 108.92 48.2734 107.908 48.2734ZM107.908 44.8965C108.473 44.8965 108.965 44.6686 109.385 44.2129C109.804 43.748 110.014 43.2285 110.014 42.6543L109.986 33.7812C109.986 33.1615 109.79 32.6374 109.398 32.209C109.007 31.7806 108.51 31.5664 107.908 31.5664C107.334 31.5664 106.842 31.776 106.432 32.1953C106.021 32.6146 105.816 33.1432 105.816 33.7812V42.6543C105.816 43.265 106.021 43.7936 106.432 44.2402C106.842 44.6777 107.334 44.8965 107.908 44.8965ZM118.805 48H115.633C115.56 48 115.523 47.9544 115.523 47.8633L115.578 28.6543C115.578 28.5632 115.615 28.5176 115.688 28.5176H118.832C118.905 28.5176 118.941 28.5632 118.941 28.6543V35.2852L123.33 28.627C123.403 28.554 123.471 28.5176 123.535 28.5176H126.748C126.83 28.5176 126.848 28.554 126.803 28.627L121.963 36.3516L127.391 47.8906C127.436 47.9635 127.391 48 127.254 48H123.836C123.745 48 123.69 47.9635 123.672 47.8906L119.885 39.6602L118.914 41.1914V47.8633C118.914 47.9544 118.878 48 118.805 48Z" fill="black"/>
<path d="M135.643 33.2668C136.032 33.2668 136.362 33.1321 136.632 32.8626C136.902 32.5931 137.036 32.2638 137.036 31.8746C137.036 31.4854 136.902 31.1561 136.632 30.8866C136.362 30.6172 136.032 30.4824 135.643 30.4824C135.253 30.4824 134.923 30.6172 134.654 30.8866C134.384 31.1561 134.249 31.4854 134.249 31.8746C134.249 32.2638 134.384 32.5931 134.654 32.8626C134.923 33.1321 135.253 33.2668 135.643 33.2668ZM133.844 37.7577C134.234 37.7577 134.564 37.6229 134.834 37.3535C135.103 37.084 135.238 36.7547 135.238 36.3655C135.238 35.9763 135.103 35.647 134.834 35.3775C134.564 35.108 134.234 34.9733 133.844 34.9733C133.455 34.9733 133.125 35.108 132.855 35.3775C132.586 35.647 132.451 35.9763 132.451 36.3655C132.451 36.7547 132.586 37.084 132.855 37.3535C133.125 37.6229 133.455 37.7577 133.844 37.7577ZM139.689 38.6109C139.944 38.6109 140.157 38.5249 140.33 38.3527C140.502 38.1806 140.588 37.9672 140.588 37.7128C140.588 37.4583 140.502 37.245 140.33 37.0728C140.157 36.9007 139.944 36.8146 139.689 36.8146C139.434 36.8146 139.221 36.9007 139.048 37.0728C138.876 37.245 138.79 37.4583 138.79 37.7128C138.79 37.9672 138.876 38.1806 139.048 38.3527C139.221 38.5249 139.434 38.6109 139.689 38.6109ZM136.992 44C135.763 44 134.601 43.7642 133.507 43.2927C132.413 42.8211 131.458 42.1774 130.641 41.3616C129.825 40.5458 129.18 39.5914 128.708 38.4987C128.236 37.4059 128 36.2457 128 35.0182C128 33.641 128.292 32.3536 128.877 31.1561C129.461 29.9585 130.244 28.9443 131.226 28.1135C132.207 27.2827 133.339 26.6839 134.62 26.3171C135.901 25.9504 137.231 25.9017 138.61 26.1712C138.52 26.8448 138.58 27.481 138.79 28.0798C139 28.6786 139.318 29.1876 139.745 29.6067C140.172 30.0259 140.686 30.3327 141.285 30.5273C141.884 30.7219 142.514 30.7669 143.173 30.6621C142.873 31.5752 143.038 32.3948 143.668 33.1208C144.297 33.8469 145.061 34.2473 145.961 34.3221C146.08 35.6245 145.927 36.8595 145.5 38.0271C145.073 39.1948 144.447 40.2202 143.623 41.1034C142.799 41.9866 141.817 42.6902 140.678 43.2141C139.539 43.738 138.31 44 136.992 44Z" fill="black"/>
</svg>
